<?xml version="1.0" standalone="no"?>
<!DOCTYPE svg PUBLIC "-//W3C//DTD SVG 20010904//EN"
 "http://www.w3.org/TR/2001/REC-SVG-20010904/DTD/svg10.dtd">
<svg version="1.0" xmlns="http://www.w3.org/2000/svg"
 width="300.000000pt" height="302.000000pt" viewBox="0 0 300.000000 302.000000"
 preserveAspectRatio="xMidYMid meet">

<g transform="translate(0.000000,302.000000) scale(0.100000,-0.100000)"
fill="#000000" stroke="none">
<path d="M1693 2840 c-102 -21 -235 -95 -316 -177 -75 -76 -112 -130 -166
-241 l-44 -90 -32 24 c-50 38 -202 104 -240 104 -41 0 -56 -19 -79 -99 -25
-85 -25 -86 52 -101 37 -7 83 -21 102 -31 45 -22 102 -83 128 -134 37 -75 79
-295 56 -295 -33 0 -171 33 -218 52 -141 57 -218 163 -224 307 -3 63 12 180
29 240 3 9 -22 27 -71 52 -41 21 -80 38 -86 38 -33 2 -84 -174 -84 -290 0
-100 45 -236 105 -320 19 -27 35 -51 35 -54 0 -3 -24 -5 -54 -5 -98 0 -188 41
-268 121 -33 32 -63 59 -68 59 -5 0 -32 -16 -62 -35 -29 -19 -61 -38 -70 -41
-28 -9 -21 -30 29 -86 136 -153 323 -228 521 -207 42 4 145 8 228 8 127 1 161
-2 215 -20 98 -32 155 -65 215 -123 l54 -52 -39 -85 c-59 -126 -101 -285 -101
-383 0 -140 36 -289 102 -423 l41 -83 -59 -77 c-32 -43 -102 -122 -155 -175
-53 -53 -94 -99 -91 -102 3 -3 63 -6 133 -6 l128 0 48 56 c159 184 270 368
326 542 29 92 31 105 30 247 -1 146 -2 153 -40 264 -21 63 -44 117 -51 119 -7
2 -24 -21 -41 -60 -57 -126 -63 -153 -62 -308 0 -124 -3 -155 -23 -215 l-22
-70 -18 34 c-40 76 -49 130 -42 261 5 93 14 145 33 205 68 212 213 364 404
425 58 19 90 21 358 21 287 0 296 1 358 25 36 13 78 35 95 49 16 14 33 25 37
25 15 0 161 153 161 169 0 9 -21 28 -48 43 -26 15 -59 35 -74 45 l-26 16 -73
-66 c-87 -79 -171 -117 -262 -117 -31 0 -57 2 -57 5 0 3 9 15 19 26 32 35 93
167 107 232 16 76 17 149 3 219 -12 59 -47 169 -58 181 -9 10 -171 -63 -171
-77 0 -6 9 -35 20 -64 29 -76 27 -176 -6 -276 -45 -135 -126 -200 -303 -245
-128 -32 -129 -32 -124 32 6 75 40 210 66 258 34 63 100 116 175 139 35 11 75
20 89 20 l24 0 -7 88 c-4 48 -9 89 -11 92 -9 10 -100 2 -152 -14 -54 -16 -139
-63 -177 -98 l-22 -20 -22 59 c-26 71 -81 173 -93 173 -5 0 -26 -13 -46 -28
-20 -16 -53 -39 -73 -51 -21 -12 -38 -25 -38 -27 0 -2 12 -23 27 -47 14 -23
32 -60 39 -82 7 -22 20 -58 28 -80 21 -58 21 -295 0 -367 -22 -73 -78 -186
-115 -228 l-30 -35 -35 40 c-46 52 -101 166 -114 234 -6 29 -10 118 -10 197 0
129 3 150 26 216 36 99 83 174 148 236 56 53 172 117 233 128 l33 6 0 94 c0
106 4 102 -87 84z"/>
<path d="M1155 2779 c-108 -56 -164 -129 -165 -216 0 -33 5 -46 26 -62 15 -12
36 -21 48 -21 25 0 82 33 108 63 67 76 110 259 63 264 -11 1 -47 -11 -80 -28z"/>
<path d="M1919 2750 c-97 -83 -144 -251 -83 -299 67 -52 135 4 164 135 12 54
-3 175 -24 193 -8 7 -25 -1 -57 -29z"/>
<path d="M1453 2243 c-45 -96 -56 -152 -51 -238 4 -61 12 -90 42 -151 27 -54
42 -74 54 -72 9 2 32 33 50 69 39 78 52 188 33 279 -14 68 -67 180 -84 180 -7
0 -27 -30 -44 -67z"/>
<path d="M284 2254 c-17 -91 14 -203 70 -258 57 -55 92 -73 114 -59 14 9 16
24 13 89 -1 44 -9 94 -17 112 -29 70 -114 152 -157 152 -11 0 -18 -13 -23 -36z"/>
<path d="M2639 2266 c-66 -45 -132 -154 -131 -215 1 -48 26 -115 43 -118 26
-5 108 66 139 119 25 45 30 63 29 118 -2 119 -18 138 -80 96z"/>
<path d="M817 2183 c-4 -3 -7 -27 -7 -53 0 -61 34 -126 88 -167 45 -34 148
-77 163 -68 29 18 -9 141 -65 210 -28 34 -49 48 -98 64 -69 23 -72 24 -81 14z"/>
<path d="M2100 2171 c-66 -23 -121 -81 -150 -159 -21 -55 -26 -107 -11 -116
11 -7 101 26 145 54 73 44 111 116 104 195 -4 48 -14 51 -88 26z"/>
<path d="M109 1693 c-28 -136 12 -346 87 -459 47 -70 137 -151 211 -189 32
-16 60 -31 62 -32 2 -1 -4 -13 -13 -25 -48 -67 -86 -130 -86 -143 0 -9 25 -22
69 -35 93 -27 113 -26 134 9 49 83 189 187 297 219 19 6 96 13 170 15 155 6
148 1 149 110 1 56 -2 69 -16 74 -79 26 -184 86 -215 122 -38 45 -88 140 -88
168 0 33 -21 43 -95 43 -96 0 -109 -11 -103 -81 7 -71 41 -158 85 -216 19 -25
31 -49 26 -53 -4 -4 -45 -15 -91 -24 -77 -15 -87 -15 -140 0 -155 45 -252 182
-252 356 l0 67 -57 43 c-32 23 -68 53 -81 65 -13 13 -27 23 -32 23 -5 0 -14
-26 -21 -57z"/>
<path d="M2819 1714 c-18 -20 -53 -47 -76 -61 l-43 -25 0 -69 c0 -192 -135
-359 -305 -376 -54 -6 -185 22 -185 39 0 5 13 26 29 48 43 60 82 165 84 229
l2 56 -97 3 -98 3 0 -43 c-1 -110 -113 -235 -241 -268 -89 -23 -81 -13 -77
-106 3 -96 12 -109 68 -97 107 22 293 -14 383 -75 64 -43 132 -107 158 -149
11 -18 29 -35 39 -38 24 -8 170 43 170 60 0 6 -22 44 -50 84 -27 40 -50 76
-49 79 0 4 28 21 62 37 68 33 222 175 251 232 54 108 84 335 52 406 -8 18 -16
40 -20 50 -8 25 -18 21 -57 -19z"/>
<path d="M401 1567 c-13 -17 12 -148 40 -201 37 -73 91 -116 144 -116 34 0 65
33 65 70 0 73 -93 192 -173 221 -20 7 -37 16 -37 20 0 13 -29 18 -39 6z"/>
<path d="M953 1525 c6 -37 56 -118 91 -148 69 -59 147 -73 184 -34 74 78 -68
216 -222 217 l-59 0 6 -35z"/>
<path d="M1897 1540 c-122 -47 -183 -145 -125 -200 60 -55 194 14 254 132 13
26 24 56 24 68 0 18 -6 20 -52 20 -29 -1 -75 -9 -101 -20z"/>
<path d="M2515 1538 c-126 -65 -210 -225 -143 -272 72 -50 177 34 213 170 8
32 15 73 15 91 0 28 -4 33 -22 33 -13 -1 -41 -10 -63 -22z"/>
<path d="M34 1155 c-14 -35 40 -148 96 -201 53 -50 77 -63 121 -64 53 0 73 27
66 87 -4 42 -12 54 -56 95 -69 63 -214 117 -227 83z"/>
<path d="M2892 1154 c-70 -18 -106 -38 -158 -86 -73 -67 -78 -154 -12 -177 43
-15 100 12 159 76 63 67 109 190 74 199 -5 1 -34 -4 -63 -12z"/>
<path d="M933 951 c-50 -13 -124 -61 -177 -115 -48 -50 -48 -50 -28 -67 12 -9
51 -22 86 -29 109 -20 220 7 294 73 30 27 31 96 1 123 -23 20 -121 29 -176 15z"/>
<path d="M1915 951 c-35 -15 -46 -37 -43 -82 3 -37 9 -47 46 -76 50 -38 93
-52 182 -59 74 -6 173 20 178 46 4 24 -76 104 -140 140 -46 25 -72 32 -130 36
-40 2 -82 0 -93 -5z"/>
<path d="M1647 350 c-10 -16 -34 -50 -53 -76 -39 -51 -40 -47 30 -121 l40 -43
128 0 c70 0 128 3 128 8 0 7 -244 262 -252 262 -2 0 -12 -13 -21 -30z"/>
</g>
</svg>
